<svg width="16" height="17" viewBox="0 0 16 17" fill="none" xmlns="http://www.w3.org/2000/svg">
<g clip-path="url(#clip0_18798_100997)">
<g clip-path="url(#clip1_18798_100997)">
<path d="M8 0.5C12.4183 0.5 16 4.08172 16 8.5C16 12.9183 12.4183 16.5 8 16.5C3.58172 16.5 0 12.9183 0 8.5C0 4.08172 3.58172 0.5 8 0.5ZM11.1914 4.40527C11.0541 4.43869 10.9204 4.51653 10.8027 4.59863C10.2232 5.00214 9.58075 5.18535 8.87598 5.16309C8.56781 5.15335 8.25889 5.12693 7.95117 5.13379C7.55595 5.14264 7.15691 5.15105 6.7666 5.20703C5.92706 5.32773 5.25657 5.76467 4.74219 6.41504C4.04502 7.29668 3.91866 8.25671 4.45703 9.26758C4.55886 9.45878 4.6908 9.63416 4.8125 9.82227C4.78258 9.85767 4.74653 9.89914 4.71191 9.94141C4.20258 10.5668 3.81652 11.253 3.66602 12.0527C3.61665 12.3166 3.77831 12.5524 4.04102 12.6055C4.28509 12.6546 4.52204 12.4941 4.58301 12.2402C4.61425 12.1098 4.64108 11.9773 4.68457 11.8506C4.97015 11.0197 5.49251 10.3573 6.17773 9.81445C6.72887 9.37783 7.35409 9.07927 8.02246 8.86328C8.28204 8.77907 8.40928 8.52777 8.33105 8.2832C8.25044 8.03159 7.99638 7.90196 7.73242 7.9834C6.95483 8.22329 6.23788 8.5809 5.59668 9.08203C5.56593 9.10609 5.5339 9.12938 5.50293 9.15234C5.02594 8.57121 4.92798 7.95154 5.27344 7.28809C5.47037 6.91013 5.78575 6.63605 6.14062 6.4082C6.53544 6.15482 6.98401 6.07371 7.44336 6.06641C7.89076 6.05912 8.33873 6.07404 8.78613 6.08887C9.59738 6.11585 10.3622 5.96313 11.0596 5.53516L11.1387 5.49609C11.2273 6.51385 11.1524 7.49818 10.8311 8.45508C10.5307 9.34925 10.0436 10.1195 9.26562 10.6826C8.46818 11.2598 7.61192 11.3933 6.69434 10.9795C6.43525 10.8627 6.16421 10.9542 6.05078 11.1943C5.93715 11.435 6.0381 11.7044 6.29785 11.8213C7.42468 12.3278 8.51972 12.2509 9.56348 11.6045C10.5283 11.007 11.1705 10.1411 11.5898 9.10449C11.9353 8.25053 12.0874 7.35809 12.1113 6.44238C12.1247 5.93583 12.0979 5.43045 12.0039 4.93164C11.9319 4.55006 11.572 4.31248 11.1914 4.40527Z" fill="#88BC10"/>
</g>
</g>
<defs>
<clipPath id="clip0_18798_100997">
<rect width="16" height="16" fill="white" transform="translate(0 0.5)"/>
</clipPath>
<clipPath id="clip1_18798_100997">
<rect width="16" height="16" fill="white" transform="translate(0 0.5)"/>
</clipPath>
</defs>
</svg>
